<svg width="33" height="37" viewBox="0 0 33 37" fill="none" xmlns="http://www.w3.org/2000/svg">
<g clip-path="url(#clip0_202_26)">
<path d="M8.25 37C12.804 37 16.5 34.2373 16.5 30.8333V24.6667H8.25C3.696 24.6667 0 27.4293 0 30.8333C0 34.2373 3.696 37 8.25 37Z" fill="#0ACF83"/>
<path d="M0 18.5C0 15.096 3.696 12.3333 8.25 12.3333H16.5V24.6667H8.25C3.696 24.6667 0 21.904 0 18.5Z" fill="#A259FF"/>
<path d="M0 6.16667C0 2.76267 3.696 0 8.25 0H16.5V12.3333H8.25C3.696 12.3333 0 9.57067 0 6.16667Z" fill="#F24E1E"/>
<path d="M16.5 0H24.75C29.304 0 33 2.76267 33 6.16667C33 9.57067 29.304 12.3333 24.75 12.3333H16.5V0Z" fill="#FF7262"/>
<path d="M33 18.5C33 21.904 29.304 24.6667 24.75 24.6667C20.196 24.6667 16.5 21.904 16.5 18.5C16.5 15.096 20.196 12.3333 24.75 12.3333C29.304 12.3333 33 15.096 33 18.5Z" fill="#1ABCFE"/>
</g>
<defs>
<clipPath id="clip0_202_26">
<rect width="33" height="37" fill="white"/>
</clipPath>
</defs>
</svg>
