<svg width="22" height="22" viewBox="0 0 30 30" fill="none" xmlns="http://www.w3.org/2000/svg">
<path d="M23.4125 6.7625L21.8125 8.0125L15 13.075L8.1875 7.9625L6.5875 6.7125C6.21057 6.40068 5.75044 6.2063 5.26411 6.15344C4.77778 6.10057 4.28664 6.19155 3.85151 6.4151C3.41639 6.63865 3.05641 6.98495 2.81618 7.41109C2.57594 7.83723 2.46601 8.32449 2.5 8.8125V23.3C2.5 23.7509 2.67911 24.1833 2.99792 24.5021C3.31673 24.8209 3.74913 25 4.2 25H8.1875V15.35L15 20.4625L21.8125 15.35V25H25.8C26.2509 25 26.6833 24.8209 27.0021 24.5021C27.3209 24.1833 27.5 23.7509 27.5 23.3V8.8125C27.5235 8.3287 27.4059 7.8485 27.1616 7.43028C26.9172 7.01205 26.5567 6.67381 26.1237 6.45666C25.6907 6.23952 25.204 6.15282 24.7227 6.20712C24.2414 6.26141 23.7862 6.45436 23.4125 6.7625Z" fill="#F8F8F8"/>
</svg>
