<svg width="22" height="22" viewBox="0 0 30 30" fill="none" xmlns="http://www.w3.org/2000/svg">
<path d="M19.2383 16.4625C19.4076 16.4625 20.0423 16.7375 21.1426 17.2875C22.2428 17.8375 22.8255 18.1688 22.8906 18.2813C22.9167 18.3438 22.9297 18.4375 22.9297 18.5625C22.9297 18.975 22.819 19.45 22.5977 19.9875C22.3893 20.475 21.9271 20.8844 21.2109 21.2156C20.4948 21.5469 19.8307 21.7125 19.2188 21.7125C18.4766 21.7125 17.2396 21.325 15.5078 20.55C14.2318 19.9875 13.125 19.25 12.1875 18.3375C11.25 17.425 10.2865 16.2688 9.29688 14.8688C8.35938 13.5313 7.89714 12.3188 7.91016 11.2313V11.0813C7.94922 9.94375 8.43099 8.95625 9.35547 8.11875C9.66797 7.84375 10.0065 7.70625 10.3711 7.70625C10.4492 7.70625 10.5664 7.71563 10.7227 7.73438C10.8789 7.75313 11.0026 7.7625 11.0938 7.7625C11.3411 7.7625 11.5137 7.80313 11.6113 7.88438C11.709 7.96563 11.8099 8.1375 11.9141 8.4C12.0182 8.65 12.2331 9.2 12.5586 10.05C12.8841 10.9 13.0469 11.3688 13.0469 11.4563C13.0469 11.7188 12.8223 12.0781 12.373 12.5344C11.9238 12.9906 11.6992 13.2813 11.6992 13.4063C11.6992 13.4938 11.7318 13.5875 11.7969 13.6875C12.2396 14.6 12.9036 15.4563 13.7891 16.2563C14.5182 16.9188 15.5013 17.55 16.7383 18.15C16.8945 18.2375 17.0378 18.2813 17.168 18.2813C17.3633 18.2813 17.7148 17.9781 18.2227 17.3719C18.7305 16.7656 19.069 16.4625 19.2383 16.4625ZM15.2734 26.4C16.9271 26.4 18.5124 26.0875 20.0293 25.4625C21.5462 24.8375 22.8516 24 23.9453 22.95C25.0391 21.9 25.9115 20.6469 26.5625 19.1906C27.2135 17.7344 27.5391 16.2125 27.5391 14.625C27.5391 13.0375 27.2135 11.5156 26.5625 10.0594C25.9115 8.60313 25.0391 7.35 23.9453 6.3C22.8516 5.25 21.5462 4.4125 20.0293 3.7875C18.5124 3.1625 16.9271 2.85 15.2734 2.85C13.6198 2.85 12.0345 3.1625 10.5176 3.7875C9.00065 4.4125 7.69531 5.25 6.60156 6.3C5.50781 7.35 4.63542 8.60313 3.98438 10.0594C3.33333 11.5156 3.00781 13.0375 3.00781 14.625C3.00781 17.1625 3.78906 19.4625 5.35156 21.525L3.80859 25.8938L8.53516 24.45C10.5924 25.75 12.8385 26.4 15.2734 26.4ZM15.2734 0.487503C17.2656 0.487503 19.1699 0.862503 20.9863 1.6125C22.8027 2.3625 24.3685 3.36875 25.6836 4.63125C26.9987 5.89375 28.0469 7.39688 28.8281 9.14063C29.6094 10.8844 30 12.7125 30 14.625C30 16.5375 29.6094 18.3656 28.8281 20.1094C28.0469 21.8531 26.9987 23.3563 25.6836 24.6188C24.3685 25.8813 22.8027 26.8875 20.9863 27.6375C19.1699 28.3875 17.2656 28.7625 15.2734 28.7625C12.7344 28.7625 10.3581 28.175 8.14453 27L0 29.5125L2.65625 21.9188C1.25 19.6938 0.546875 17.2625 0.546875 14.625C0.546875 12.7125 0.9375 10.8844 1.71875 9.14063C2.5 7.39688 3.54818 5.89375 4.86328 4.63125C6.17839 3.36875 7.74414 2.3625 9.56055 1.6125C11.377 0.862503 13.2812 0.487503 15.2734 0.487503Z" fill="#F8F8F8"/>
</svg>
