<svg width="18" height="21" viewBox="0 0 26 23" fill="none" xmlns="http://www.w3.org/2000/svg">
<path d="M24.6973 4.64651C24.3046 3.73724 23.7383 2.91327 23.0303 2.22072C22.3217 1.52611 21.4862 0.974115 20.5693 0.594747C19.6186 0.199805 18.5989 -0.00234898 17.5693 2.05924e-05C16.125 2.05924e-05 14.7158 0.395528 13.4912 1.1426C13.1982 1.32131 12.9199 1.5176 12.6562 1.73147C12.3926 1.5176 12.1143 1.32131 11.8213 1.1426C10.5967 0.395528 9.1875 2.05924e-05 7.74316 2.05924e-05C6.70312 2.05924e-05 5.69531 0.199239 4.74316 0.594747C3.82324 0.975607 2.99414 1.52346 2.28223 2.22072C1.57323 2.91249 1.00687 3.73665 0.615234 4.64651C0.208008 5.59279 0 6.59768 0 7.63186C0 8.60744 0.199219 9.62404 0.594727 10.6582C0.925781 11.5225 1.40039 12.419 2.00684 13.3242C2.96777 14.7569 4.28906 16.251 5.92969 17.7656C8.64844 20.2764 11.3408 22.0108 11.4551 22.0811L12.1494 22.5264C12.457 22.7227 12.8525 22.7227 13.1602 22.5264L13.8545 22.0811C13.9688 22.0078 16.6582 20.2764 19.3799 17.7656C21.0205 16.251 22.3418 14.7569 23.3027 13.3242C23.9092 12.419 24.3867 11.5225 24.7148 10.6582C25.1104 9.62404 25.3096 8.60744 25.3096 7.63186C25.3125 6.59768 25.1045 5.59279 24.6973 4.64651Z" fill="#F24E1E"/>
</svg>
