<svg width="33" height="33" viewBox="0 0 42 42" fill="none" xmlns="http://www.w3.org/2000/svg">
<path d="M14.1914 29.3125C14.2643 29.2031 14.237 29.0846 14.1094 28.957C13.9453 28.8294 13.8177 28.8112 13.7266 28.9023C13.6536 29.0117 13.681 29.1302 13.8086 29.2578C13.9727 29.3854 14.1003 29.4036 14.1914 29.3125ZM13.4258 28.1914C13.3346 28.0638 13.2253 28.0273 13.0977 28.082C12.9883 28.1549 12.9883 28.2643 13.0977 28.4102C13.2253 28.556 13.3346 28.6016 13.4258 28.5469C13.5352 28.474 13.5352 28.3555 13.4258 28.1914ZM12.3047 27.0977C12.3411 27.0247 12.2956 26.9518 12.168 26.8789C12.0404 26.8424 11.9674 26.8607 11.9492 26.9336C11.8945 27.0247 11.931 27.0977 12.0586 27.1523C12.2044 27.1888 12.2865 27.1706 12.3047 27.0977ZM12.8789 27.7266C12.9154 27.7083 12.929 27.6673 12.9199 27.6035C12.9108 27.5397 12.8789 27.4896 12.8242 27.4531C12.7148 27.3255 12.6237 27.2982 12.5508 27.3711C12.4779 27.444 12.487 27.5443 12.5781 27.6719C12.6875 27.7812 12.7878 27.7995 12.8789 27.7266ZM15.2305 29.7773C15.2669 29.6497 15.1849 29.5495 14.9844 29.4766C14.8203 29.4219 14.7018 29.4583 14.6289 29.5859C14.5924 29.7135 14.6745 29.8138 14.875 29.8867C15.0391 29.9414 15.1576 29.9049 15.2305 29.7773ZM16.3789 29.8594C16.3789 29.7135 16.2695 29.6406 16.0508 29.6406C15.8685 29.6406 15.7773 29.7135 15.7773 29.8594C15.7773 30.0052 15.8776 30.0781 16.0781 30.0781C16.2786 30.0781 16.3789 30.0052 16.3789 29.8594ZM17.4453 29.668C17.4089 29.5404 17.2904 29.4948 17.0898 29.5312C16.8893 29.5677 16.8073 29.6497 16.8438 29.7773C16.8802 29.9232 16.9896 29.9779 17.1719 29.9414C17.3542 29.9049 17.4453 29.8138 17.4453 29.668ZM35 21C35 17.1354 33.6328 13.8359 30.8984 11.1016C28.1641 8.36719 24.8646 7 21 7C17.1354 7 13.8359 8.36719 11.1016 11.1016C8.36719 13.8359 7 17.1354 7 21C7 24.0443 7.89323 26.7832 9.67969 29.2168C11.4661 31.6504 13.763 33.3411 16.5703 34.2891C16.8984 34.3438 17.14 34.2982 17.2949 34.1523C17.4499 34.0065 17.5273 33.8242 17.5273 33.6055C17.5273 32.6576 17.5182 31.7917 17.5 31.0078C17.3906 31.026 17.2493 31.0488 17.0762 31.0762C16.903 31.1035 16.5794 31.1217 16.1055 31.1309C15.6315 31.14 15.194 31.1035 14.793 31.0215C14.3919 30.9395 13.9954 30.7572 13.6035 30.4746C13.2116 30.1921 12.9427 29.8138 12.7969 29.3398C12.3776 28.2643 11.8581 27.5898 11.2383 27.3164C11.2018 27.2982 11.1608 27.2663 11.1152 27.2207L10.8965 27.002L10.7051 26.7422L10.8145 26.5371L11.3477 26.4414C11.457 26.4414 11.5938 26.4596 11.7578 26.4961C11.9219 26.5326 12.1953 26.6738 12.5781 26.9199C12.9609 27.166 13.2617 27.4896 13.4805 27.8906C13.7721 28.401 14.1139 28.7839 14.5059 29.0391C14.8978 29.2943 15.2943 29.4219 15.6953 29.4219C16.0964 29.4219 16.4427 29.39 16.7344 29.3262C17.026 29.2624 17.2995 29.1758 17.5547 29.0664C17.6823 28.2096 17.9831 27.5807 18.457 27.1797C17.5638 27.0703 16.7799 26.9017 16.1055 26.6738C15.431 26.446 14.7656 26.0905 14.1094 25.6074C13.4531 25.1243 12.9473 24.4316 12.5918 23.5293C12.2363 22.627 12.0586 21.5378 12.0586 20.2617C12.0586 18.8216 12.5417 17.5729 13.5078 16.5156C13.0703 15.3854 13.1159 14.1458 13.6445 12.7969C13.9909 12.6875 14.4876 12.7559 15.1348 13.002C15.7819 13.248 16.3333 13.5169 16.7891 13.8086L17.5 14.2461C18.5573 13.9362 19.724 13.7812 21 13.7812C22.276 13.7812 23.4427 13.9362 24.5 14.2461C24.7005 14.1185 24.9603 13.9544 25.2793 13.7539C25.5983 13.5534 26.1042 13.3164 26.7969 13.043C27.4896 12.7695 28.0091 12.6875 28.3555 12.7969C28.8841 14.1458 28.9297 15.3854 28.4922 16.5156C29.4583 17.5729 29.9414 18.8216 29.9414 20.2617C29.9414 21.3008 29.8138 22.2168 29.5586 23.0098C29.3034 23.8027 28.9798 24.4408 28.5879 24.9238C28.196 25.4069 27.7083 25.8125 27.125 26.1406C26.5417 26.4688 25.972 26.7057 25.416 26.8516C24.86 26.9974 24.2357 27.1068 23.543 27.1797C24.181 27.7448 24.5 28.6107 24.5 29.7773C24.5 30.5065 24.4954 31.3177 24.4863 32.2109C24.4772 33.1042 24.4727 33.569 24.4727 33.6055C24.4727 33.8242 24.5501 34.0065 24.7051 34.1523C24.86 34.2982 25.1016 34.3438 25.4297 34.2891C28.237 33.3411 30.5339 31.6504 32.3203 29.2168C34.1068 26.7832 35 24.0443 35 21ZM42 7.875V34.125C42 36.2943 41.2298 38.1491 39.6895 39.6895C38.1491 41.2298 36.2943 42 34.125 42H7.875C5.70573 42 3.85091 41.2298 2.31055 39.6895C0.770182 38.1491 0 36.2943 0 34.125V7.875C0 5.70573 0.770182 3.85091 2.31055 2.31055C3.85091 0.770182 5.70573 0 7.875 0H34.125C36.2943 0 38.1491 0.770182 39.6895 2.31055C41.2298 3.85091 42 5.70573 42 7.875Z" fill="#ffffff"/>
</svg>
