<svg width="33" height="33" viewBox="0 0 42 42" fill="none" xmlns="http://www.w3.org/2000/svg">
<rect width="42" height="42" rx="5" fill="#262626"/>
<g clip-path="url(#clip0_30_2)">
<path d="M19.5 7C15.9196 7 12.4858 8.42232 9.95406 10.9541C7.42232 13.4858 6 16.9196 6 20.5C6 24.0804 7.42232 27.5142 9.95406 30.0459C12.4858 32.5777 15.9196 34 19.5 34C23.0804 34 26.5142 32.5777 29.0459 30.0459C31.5777 27.5142 33 24.0804 33 20.5C33 16.9196 31.5777 13.4858 29.0459 10.9541C26.5142 8.42232 23.0804 7 19.5 7V7ZM7.665 21.52H11.43C11.49 22.885 11.6805 24.241 12 25.57H8.76C8.15581 24.2963 7.78494 22.9246 7.665 21.52V21.52ZM20.52 13.42V8.785C21.9655 9.33434 23.1533 10.4044 23.85 11.785C24.1575 12.3055 24.429 12.847 24.66 13.405L20.52 13.42V13.42ZM25.35 15.445C25.698 16.7695 25.905 18.127 25.965 19.495H20.52V15.445H25.35V15.445ZM18.48 8.785V13.42H14.34C14.5714 12.8615 14.8421 12.3202 15.15 11.8C15.8437 10.4138 17.0319 9.33799 18.48 8.785V8.785ZM18.48 15.445V19.495H13.05C13.11 18.127 13.317 16.7695 13.665 15.445H18.48V15.445ZM11.43 19.48H7.665C7.78494 18.0754 8.15581 16.7037 8.76 15.43H12C11.6799 16.7585 11.489 18.1148 11.43 19.48V19.48ZM13.05 21.52H18.48V25.57H13.665C13.3171 24.2456 13.1109 22.888 13.05 21.52V21.52ZM18.495 27.52V32.155C17.0495 31.6057 15.8617 30.5356 15.165 29.155C14.8571 28.6348 14.5864 28.0935 14.355 27.535L18.495 27.52V27.52ZM20.52 32.155V27.595H24.66C24.4286 28.1535 24.1579 28.6948 23.85 29.215C23.1533 30.5956 21.9655 31.6657 20.52 32.215V32.155V32.155ZM20.52 25.495V21.445H25.95C25.8891 22.813 25.6829 24.1706 25.335 25.495H20.52ZM27.585 21.445H31.35C31.2301 22.8496 30.8592 24.2213 30.255 25.495H27C27.315 24.19 27.5055 22.8595 27.57 21.52L27.585 21.445V21.445ZM27.585 19.42C27.5163 18.0795 27.3204 16.7485 27 15.445H30.24C30.8445 16.72 31.215 18.091 31.335 19.495L27.585 19.42ZM29.085 13.42H26.4C25.9142 12.0555 25.21 10.7788 24.315 9.64C26.1816 10.4779 27.8029 11.7791 29.025 13.42H29.085V13.42ZM14.685 9.64C13.79 10.7788 13.0858 12.0555 12.6 13.42H9.975C11.1971 11.7791 12.8184 10.4779 14.685 9.64V9.64ZM9.96 27.64H12.6C13.0858 29.0046 13.79 30.2812 14.685 31.42C12.8133 30.5695 11.1914 29.2524 9.975 27.595L9.96 27.64V27.64ZM24.3 31.42C25.195 30.2812 25.8992 29.0046 26.385 27.64H29.025C27.7954 29.2589 26.1748 30.539 24.315 31.36L24.3 31.42Z" fill="#F8F8F8"/>
</g>
<defs>
<clipPath id="clip0_30_2">
<rect width="30" height="30" fill="white" transform="translate(6 7)"/>
</clipPath>
</defs>
</svg>
