<svg width="174" height="51" viewBox="0 0 174 51" fill="none" xmlns="http://www.w3.org/2000/svg">
<g clip-path="url(#clip0_205_37)">
<path d="M1.13236 39.5777V20.0741H25.3102V18.9333H1.13236V1.14048H26.8388V0H0V40.7182H27.0652V39.5777H1.1327H1.13236ZM48.8651 11.4055L38.8431 24.6932L29.0471 11.4059H27.5749L38.1634 25.5489L26.5554 40.7179H27.9144L38.8424 26.4036L49.8272 40.7179H51.2427L39.5785 25.5483L50.2235 11.4052H48.8648L48.8651 11.4055ZM54.6404 50.7553V32.5065H54.7536C55.4333 35.1678 56.7733 37.3063 58.7739 38.9222C60.7746 40.5378 63.3224 41.3459 66.4177 41.3459C68.4184 41.3459 70.1927 40.9373 71.7403 40.1199C73.288 39.3025 74.5808 38.1904 75.619 36.7837C76.6569 35.3769 77.4497 33.7421 77.9972 31.8791C78.5443 30.0164 78.8183 28.0582 78.8183 26.0055C78.8183 23.8002 78.5348 21.766 77.9687 19.9033C77.4025 18.0403 76.5814 16.4244 75.5058 15.056C74.4299 13.6872 73.1276 12.6223 71.5986 11.8625C70.07 11.1019 68.3429 10.7216 66.4177 10.7216C64.9455 10.7216 63.5773 10.9404 62.3127 11.3775C61.0482 11.8149 59.9253 12.4324 58.9439 13.2309C57.9566 14.0356 57.0973 14.9875 56.3957 16.0537C55.6786 17.1374 55.1312 18.3254 54.7536 19.6182H54.6404V11.4055H53.5081V50.7553H54.6404V50.7553ZM66.4177 40.2619C62.8697 40.2619 60.0195 39.0359 57.8679 36.5838C55.7164 34.1317 54.6404 30.6051 54.6404 26.0049C54.6404 24.1038 54.9048 22.298 55.4333 20.5872C55.9617 18.8765 56.726 17.3746 57.7262 16.0821C58.7267 14.7893 59.9631 13.7628 61.4349 13.0026C62.9071 12.2421 64.5683 11.8618 66.4177 11.8618C68.3052 11.8618 69.9568 12.2421 71.3723 13.0026C72.7877 13.7628 73.9582 14.7989 74.8829 16.1105C75.8076 17.4221 76.506 18.9241 76.978 20.6156C77.4497 22.3075 77.6856 24.1038 77.6856 26.0049C77.6856 27.7159 77.4687 29.4174 77.0344 31.109C76.6004 32.8009 75.9303 34.3216 75.0242 35.6716C74.1186 37.0209 72.958 38.1234 71.5422 38.9791C70.1264 39.8344 68.4184 40.2619 66.4177 40.2619V40.2619ZM85.0466 40.7182V24.123C85.0466 22.5263 85.2729 20.9672 85.7263 19.4467C86.1789 17.926 86.8773 16.5856 87.8211 15.4263C88.7648 14.2667 89.9631 13.3541 91.4166 12.6887C92.8698 12.0233 94.5969 11.7478 96.5975 11.8618V10.7213C94.8609 10.6836 93.3418 10.8733 92.0395 11.2915C90.7369 11.7098 89.6141 12.28 88.6703 13.0026C87.7266 13.7248 86.9718 14.5706 86.4056 15.5403C85.8399 16.5084 85.42 17.5558 85.1597 18.6482H85.0466V11.4055H83.9142V40.7185H85.0466V40.7182ZM98.013 26.29H122.36C122.436 24.275 122.238 22.3363 121.766 20.4732C121.294 18.6102 120.539 16.9563 119.501 15.5119C118.463 14.0671 117.123 12.9074 115.481 12.0329C113.839 11.1584 111.885 10.7213 109.621 10.7213C107.997 10.7213 106.412 11.0636 104.864 11.7481C103.317 12.4324 101.958 13.4301 100.787 14.7417C99.6174 16.0534 98.6736 17.6597 97.9566 19.5611C97.2395 21.4618 96.8806 23.6287 96.8806 26.062C96.8806 28.229 97.126 30.2536 97.6167 32.1355C98.1074 34.0173 98.8622 35.6524 99.8814 37.04C100.901 38.4276 102.213 39.5017 103.817 40.2619C105.421 41.0225 107.356 41.3836 109.621 41.3456C112.942 41.3456 115.736 40.4043 118.001 38.5228C120.266 36.6406 121.606 33.9889 122.021 30.5671H120.889C120.398 33.799 119.142 36.2227 117.123 37.8382C115.103 39.4541 112.565 40.2619 109.507 40.2619C107.431 40.2619 105.676 39.9008 104.241 39.1786C102.807 38.4564 101.637 37.4675 100.731 36.2131C99.825 34.9583 99.1549 33.4851 98.7209 31.7932C98.2866 30.1016 98.0507 28.267 98.013 26.29ZM121.228 25.1495H98.0133C98.1261 23.0965 98.5037 21.2526 99.1453 19.6179C99.7873 17.9828 100.627 16.5856 101.665 15.4263C102.703 14.2667 103.911 13.3829 105.289 12.7743C106.667 12.1661 108.148 11.8618 109.734 11.8618C111.621 11.8618 113.282 12.2136 114.717 12.917C116.151 13.6204 117.349 14.5805 118.312 15.797C119.275 17.0135 120.001 18.4298 120.492 20.0454C120.983 21.6613 121.228 23.3628 121.228 25.1495ZM145.859 20.0741H146.991C146.991 16.8043 146.048 14.4282 144.16 12.9454C142.273 11.4627 139.706 10.7213 136.46 10.7213C134.647 10.7213 133.119 10.9496 131.873 11.4059C130.627 11.8618 129.608 12.4512 128.815 13.1734C128.023 13.8956 127.457 14.6942 127.117 15.5687C126.777 16.4432 126.607 17.2798 126.607 18.078C126.607 19.6747 126.89 20.9483 127.457 21.8989C128.023 22.8494 128.91 23.5908 130.118 24.123C130.948 24.5029 131.892 24.8452 132.949 25.1498C134.006 25.4538 135.233 25.7769 136.629 26.1188C137.875 26.4235 139.102 26.7274 140.31 27.0314C141.518 27.3357 142.584 27.7443 143.509 28.2574C144.434 28.7708 145.189 29.4267 145.774 30.2252C146.359 31.0234 146.651 32.0691 146.651 33.3615C146.651 34.6163 146.359 35.6808 145.774 36.555C145.194 37.425 144.43 38.1553 143.537 38.6939C142.631 39.245 141.621 39.6441 140.508 39.8912C139.394 40.1384 138.309 40.2619 137.252 40.2619C133.817 40.2619 131.184 39.4921 129.353 37.9526C127.523 36.4126 126.607 33.9889 126.607 30.6811H125.475C125.475 34.3692 126.466 37.0684 128.447 38.7795C130.429 40.4902 133.364 41.3456 137.252 41.3456C138.498 41.3456 139.753 41.2029 141.018 40.9177C142.282 40.6326 143.415 40.1671 144.415 39.5205C145.407 38.8831 146.24 38.0247 146.85 37.0116C147.472 35.9848 147.784 34.7303 147.784 33.2476C147.784 31.8408 147.51 30.7003 146.963 29.8258C146.416 28.9516 145.698 28.229 144.811 27.6588C143.924 27.0885 142.924 26.6419 141.81 26.3187C140.69 25.9937 139.567 25.6799 138.441 25.3775C137.055 25.0112 135.668 24.6501 134.279 24.2941C133.091 23.9899 131.986 23.6287 130.967 23.2105C129.986 22.7922 129.202 22.1936 128.617 21.4142C128.032 20.6348 127.74 19.5227 127.74 18.078C127.74 17.812 127.815 17.3366 127.966 16.6524C128.117 15.9678 128.476 15.274 129.042 14.5706C129.608 13.8676 130.476 13.2401 131.647 12.6887C132.817 12.1377 134.421 11.8618 136.46 11.8618C137.856 11.8618 139.13 12.0141 140.281 12.318C141.433 12.6223 142.424 13.107 143.254 13.7724C144.085 14.4378 144.726 15.2836 145.179 16.3101C145.632 17.3369 145.859 18.5914 145.859 20.0741V20.0741ZM172.075 20.0741H173.207C173.207 16.8043 172.264 14.4282 170.376 12.9454C168.489 11.4627 165.922 10.7213 162.675 10.7213C160.864 10.7213 159.335 10.9496 158.089 11.4059C156.843 11.8618 155.824 12.4512 155.032 13.1734C154.239 13.8956 153.673 14.6942 153.333 15.5687C152.993 16.4432 152.823 17.2798 152.823 18.078C152.823 19.6747 153.106 20.9483 153.673 21.8989C154.239 22.8494 155.126 23.5908 156.334 24.123C157.164 24.5029 158.108 24.8452 159.165 25.1498C160.222 25.4538 161.449 25.7769 162.845 26.1188C164.091 26.4235 165.318 26.7274 166.526 27.0314C167.734 27.3357 168.8 27.7443 169.725 28.2574C170.65 28.7708 171.405 29.4267 171.99 30.2252C172.575 31.0234 172.868 32.0691 172.868 33.3615C172.868 34.6163 172.575 35.6808 171.99 36.555C171.41 37.425 170.646 38.1553 169.754 38.6939C168.847 39.245 167.838 39.6441 166.724 39.8912C165.611 40.1384 164.525 40.2619 163.468 40.2619C160.033 40.2619 157.4 39.4921 155.57 37.9526C153.739 36.4126 152.823 33.9889 152.823 30.6811H151.691C151.691 34.3692 152.682 37.0684 154.664 38.7795C156.645 40.4902 159.58 41.3456 163.468 41.3456C164.714 41.3456 165.969 41.2029 167.234 40.9177C168.498 40.6326 169.631 40.1671 170.631 39.5205C171.623 38.8831 172.456 38.0247 173.066 37.0116C173.689 35.9848 174 34.7303 174 33.2476C174 31.8408 173.726 30.7003 173.179 29.8258C172.632 28.9516 171.915 28.229 171.027 27.6588C170.14 27.0885 169.14 26.6419 168.027 26.3187C166.907 25.9937 165.784 25.6799 164.657 25.3775C163.271 25.0112 161.884 24.6501 160.496 24.2941C159.307 23.9899 158.202 23.6287 157.183 23.2105C156.202 22.7922 155.418 22.1936 154.833 21.4142C154.248 20.6348 153.956 19.5227 153.956 18.078C153.956 17.812 154.031 17.3366 154.182 16.6524C154.333 15.9678 154.692 15.274 155.258 14.5706C155.824 13.8676 156.692 13.2401 157.863 12.6887C159.033 12.1377 160.637 11.8618 162.676 11.8618C164.072 11.8618 165.346 12.0141 166.498 12.318C167.649 12.6223 168.64 13.107 169.47 13.7724C170.301 14.4378 170.942 15.2836 171.395 16.3101C171.848 17.3369 172.075 18.5914 172.075 20.0741H172.075Z" fill="white"/>
</g>
<defs>
<clipPath id="clip0_205_37">
<rect width="174" height="100" fill="white"/>
</clipPath>
</defs>
</svg>
